<?xml version="1.0"?>
<svg viewBox="0 0 48 48" xmlns="http://www.w3.org/2000/svg">
    <defs>
        <linearGradient id="a">
            <stop stop-color="#d2b32a" stop-opacity=".56731"/>
            <stop stop-color="#ffeb3f" stop-opacity=".72157" offset=".11"/>
            <stop stop-color="#fff493" stop-opacity=".23077" offset="1"/>
        </linearGradient>
        <linearGradient id="d" x1="336.16" x2="567" y1="504.34" y2="504.34"
                        gradientTransform="matrix(.092745 0 0 .098484 -8.4773 -25.387)" gradientUnits="userSpaceOnUse"/>
        <linearGradient id="c" x1="333.57" x2="564.29" y1="459.01" y2="459.01"
                        gradientTransform="matrix(.092745 0 0 .098484 -8.4773 -25.387)" gradientUnits="userSpaceOnUse"/>
        <radialGradient id="b" cx="208.84" cy="515.08" r="90"
                        gradientTransform="matrix(.18545 .00499 -.0034938 .14642 -26.528 -50.894)"
                        gradientUnits="userSpaceOnUse">
            <stop stop-color="#c8a20b" />
            <stop stop-color="#f7e87b" offset="1"/>
        </radialGradient>
    </defs>
    <path d="m13.781 11.719c-5.3389 0-9.6562 4.5334-9.6562 10.125 2e-7 5.5916 4.3173 10.125 9.6562 10.125 4.0052 0 7.4379-2.5508 8.9062-6.1875h1.6875l2.5312-1.4062 0.5625 1.4062 7-0.40625 0.96875-1.4688 1.0938 1.4688h1.7812l0.96875-2.2812 1.0938 1.6875h1.625c0.0123 0 0.022731 0.008276 0.03125 0 0.008518-0.008277 0.031251-0.018188 0.03125-0.03125l3.125-3c1e-6 0-1.25-3.5625-1.25-3.5625l-21.312-0.4375c-1.5002-3.5599-4.8917-6.0312-8.8438-6.0312zm-3.875 6.2812h0.40625c1.0699 0 1.9375 0.90357 1.9375 2v3.2188c0 1.0964-0.86763 1.9688-1.9375 1.9688h-0.40625c-1.0699 0-1.9375-0.87232-1.9375-1.9688v-3.2188c0-1.0964 0.86763-2 1.9375-2z"
          fill="#dabf3c" fill-rule="evenodd"/>
    <path d="m22.504 18.755 21.309 0.31387c0.024602 0 0.044406 0.016755 0.044406 0.037569v0.98977c0 0.020813-0.019804 0.037569-0.044406 0.037569l-21.309-0.31387c-0.0246 0-0.044406-0.016757-0.044406-0.03757v-0.98977c0-0.020814 0.019806-0.03757 0.044406-0.03757z"
          fill="url(#c)" fill-rule="evenodd"/>
    <path d="m44.109 22.593-21.372 0.046165c-0.02163 0-0.037679 0.048567-0.037678 0.11079v2.8283h1.6779l2.5217-1.4065 0.56806 1.4065 6.9878-0.39394 0.98832-1.4896 1.0782 1.4896h1.7766l0.98832-2.2774 1.0782 1.6865h1.6462c0.0123 0 0.023362-0.004035 0.031881-0.01231 0.008517-0.008278 0.014492-0.020792 0.014491-0.033854 0 0 1.1261-1.0722 2.052-1.9543z"
          fill="url(#d)" fill-rule="evenodd"/>
    <g transform="matrix(1.0149 0 0 1.0149 -.20474 -.32478)" fill-rule="evenodd">
        <path d="m13.75 12.375c-4.9861 0-9.0312 4.2279-9.0312 9.4375s4.0451 9.4375 9.0312 9.4375 9.0312-4.2279 9.0312-9.4375-4.0451-9.4375-9.0312-9.4375zm-3.8438 5.625h0.40625c1.0699 0 1.9375 0.90357 1.9375 2v3.2188c0 1.0964-0.86763 1.9688-1.9375 1.9688h-0.40625c-1.0699 0-1.9375-0.87232-1.9375-1.9688v-3.2188c0-1.0964 0.86763-2 1.9375-2z"
              fill="url(#b)"/>
        <path d="m21.594 17.156c-4.5146 0.33642-5.7446 2.5887-9.3438 5.0312v1.0312c0 1.0964-0.86763 1.9688-1.9375 1.9688h-0.40625c-0.66816 0-1.1848-0.38065-1.5312-0.90625-1.09 0.40259-2.1068 0.60385-3.125 0.75 1.2597 3.6277 4.5946 6.2187 8.5 6.2188 4.9862 1e-6 9.0312-4.2279 9.0312-9.4375 0-1.6949-0.43785-3.2809-1.1875-4.6562z"
              fill="#c4a00f" opacity=".45405"/>
    </g>
    <path d="m9.8951 18.013h0.41339c1.0699 0 1.9312 0.88269 1.9312 1.9791v3.2194c0 1.0964-0.86131 1.9791-1.9312 1.9791h-0.41339c-1.0699 0-1.9312-0.88269-1.9312-1.9791v-3.2194c0-1.0964 0.86131-1.9791 1.9312-1.9791z"
          fill="none" stroke="#ac8b0b" stroke-linejoin="round"/>
    <path d="m13.781 11.719c-5.3389 0-9.6562 4.5334-9.6562 10.125 2e-7 5.5916 4.3173 10.125 9.6562 10.125 4.0052 0 7.4379-2.5508 8.9062-6.1875h1.6875l2.5312-1.9062 1.0625 1.9062 6-0.40625 1.4688-2.9688 1.5938 2.9688h1.2812l0.96875-2.7812 1.5938 2.1875h1.125c0.0123 0 0.022731 0.008276 0.03125 0 0.008518-0.008277 0.031251-0.018188 0.03125-0.03125l3.125-3c1e-6 0-1.25-3.5625-1.25-3.5625l-21.312-0.4375c-1.5002-3.5599-4.8917-6.0312-8.8438-6.0312zm-3.875 6.2812h0.40625c1.0699 0 1.9375 0.90357 1.9375 2v3.2188c0 1.0964-0.86763 1.9688-1.9375 1.9688h-0.40625c-1.0699 0-1.9375-0.87232-1.9375-1.9688v-3.2188c0-1.0964 0.86763-2 1.9375-2z"
          fill="none" stroke="#ac8b0b"/>
</svg>
